# xmcd
#
# Track frame offsets: 
#        150
#        16090
#        34708
#        51491
#        65293
#        78228
#        93865
#        110139
#        126568
#        142163
#        158714
#        175909
#        192148
#        209961
#        228765
#        245388
#        262140
#        277828
#        296490
#        318116
#        328157
#
# Disc length: 4607 seconds
#
# Revision: 1
# Processed by: cddbd v1.5.2PL0 Copyright (c) Steve Scherf et al.
# Submitted via: ExactAudioCopy v0.99pb5
#
DISCID=3511fd15
DTITLE=Juice Newton - Old Flame and Dirty Looks
DYEAR=2007
DGENRE=Country
TTITLE0=Cheap Love
TTITLE1=You Make Me Want To Make You Mine
TTITLE2=Hurt
TTITLE3=Old Flame
TTITLE4=Stuck In The Middle With You
TTITLE5=Feel A Whole Lot Better
TTITLE6=What Can I Do With My Heart
TTITLE7=With You
TTITLE8=One Touch
TTITLE9=Let Your Woman Take Care Of You
TTITLE10=Dirty Looks
TTITLE11=Tell Her No
TTITLE12=Til I Loved You
TTITLE13=Keeping Me On My Toes
TTITLE14=Twenty Years Ago
TTITLE15=Don't Bother Me
TTITLE16=Stranger At My Door
TTITLE17=Slipping Away
TTITLE18=Runaway Hearts
TTITLE19=For Believers
TTITLE20=Both To Each Other (Friends And Lovers) (with Eddie Rabbitt)
EXTD=
EXTT0=
EXTT1=
EXTT2=
EXTT3=
EXTT4=
EXTT5=
EXTT6=
EXTT7=
EXTT8=
EXTT9=
EXTT10=
EXTT11=
EXTT12=
EXTT13=
EXTT14=
EXTT15=
EXTT16=
EXTT17=
EXTT18=
EXTT19=
EXTT20=
PLAYORDER=
